<?xml version="1.0" encoding="utf-8"?>
<!-- Generator: Adobe Illustrator 24.2.3, SVG Export Plug-In . SVG Version: 6.00 Build 0)  -->
<svg version="1.1" id="Layer_1" xmlns="http://www.w3.org/2000/svg" xmlns:xlink="http://www.w3.org/1999/xlink" x="0px" y="0px"
	 viewBox="0 0 250 41.2" style="enable-background:new 0 0 250 41.2;" xml:space="preserve">
<style type="text/css">
	.st0{fill:#F6C874;}
	.st1{fill:#78C8E7;}
	.st2{fill:#A2C85F;}
	.st3{fill:#56AC57;}
	.st4{fill:#323232;}
</style>
<g>
	<polygon class="st0" points="21.1,23.7 9.3,29.6 21,35.4 32.8,29.6 	"/>
	<polygon class="st1" points="21.1,17.7 9.3,23.6 21,29.5 32.8,23.6 	"/>
	<polygon class="st2" points="21.1,11.7 9.3,17.6 21,23.5 32.8,17.6 	"/>
	<polygon class="st3" points="21.1,5.8 9.3,11.7 21,17.5 32.8,11.7 	"/>
</g>
<g>
	<path class="st4" d="M40.8,9.5c0-0.2,0.1-0.3,0.2-0.5c0.1-0.1,0.3-0.2,0.5-0.2h4.6c0.2,0,0.3,0.1,0.5,0.2c0.1,0.1,0.2,0.3,0.2,0.5
		v17h8.6c0.2,0,0.4,0.1,0.5,0.2c0.1,0.1,0.2,0.3,0.2,0.5v4.1c0,0.2-0.1,0.3-0.2,0.5c-0.1,0.1-0.3,0.2-0.5,0.2h-14
		c-0.5,0-0.7-0.2-0.7-0.7V9.5z"/>
	<path class="st4" d="M75.8,29.7c-0.9,0.8-2,1.5-3.1,2c-1.1,0.5-2.4,0.7-3.7,0.7c-1.4,0-2.8-0.3-4.1-0.8c-1.3-0.5-2.4-1.2-3.4-2.2
		c-1-0.9-1.7-2-2.3-3.3c-0.6-1.3-0.8-2.6-0.8-4.1c0-0.9,0.1-1.8,0.3-2.7c0.2-0.9,0.5-1.7,1-2.4c0.4-0.8,0.9-1.4,1.5-2.1
		c0.6-0.6,1.3-1.2,2-1.6c0.7-0.4,1.5-0.8,2.4-1c0.9-0.3,1.8-0.4,2.7-0.4c0.9,0,1.7,0.1,2.5,0.3c0.8,0.2,1.6,0.6,2.3,1
		c0.7,0.4,1.4,0.9,2,1.5c0.6,0.6,1.1,1.2,1.5,1.9c0.4,0.7,0.8,1.4,1,2.2c0.2,0.8,0.4,1.6,0.4,2.4c0,0.5,0,1,0,1.3
		c0,0.3-0.1,0.6-0.2,0.8c-0.1,0.2-0.4,0.3-0.7,0.4c-0.3,0.1-0.8,0.1-1.5,0.1H64.3c0.1,0.7,0.3,1.2,0.6,1.7c0.3,0.4,0.7,0.8,1.1,1.1
		c0.4,0.3,0.9,0.5,1.3,0.6c0.5,0.1,0.9,0.2,1.3,0.2c0.4,0,0.8,0,1.2-0.1c0.4-0.1,0.8-0.2,1.2-0.3c0.4-0.1,0.7-0.3,1-0.5
		c0.3-0.2,0.6-0.4,0.7-0.5c0.2-0.1,0.3-0.2,0.4-0.3c0.1-0.1,0.2-0.1,0.4-0.1c0.1,0,0.3,0,0.4,0.1c0.1,0.1,0.3,0.2,0.5,0.4l1.7,1.9
		c0.1,0.1,0.2,0.3,0.2,0.4c0,0.1,0,0.2,0,0.3c0,0.2-0.1,0.4-0.2,0.5C76.1,29.4,76,29.6,75.8,29.7z M68.3,16.6
		c-0.4,0-0.8,0.1-1.2,0.2c-0.4,0.2-0.7,0.4-1.1,0.7c-0.3,0.3-0.6,0.6-0.9,0.9c-0.3,0.3-0.5,0.7-0.7,1.1h8c-0.2-0.4-0.5-0.8-0.7-1.1
		c-0.3-0.3-0.5-0.6-0.9-0.9c-0.3-0.3-0.7-0.5-1.1-0.6C69.3,16.7,68.8,16.6,68.3,16.6z"/>
	<path class="st4" d="M101.8,30.9c0,0.2,0,0.3-0.1,0.5c-0.1,0.2-0.2,0.3-0.3,0.4c-0.1,0.1-0.2,0.2-0.4,0.2c-0.2,0-0.3,0-0.4,0h-3.1
		c-0.2,0-0.4,0-0.5-0.1c-0.1-0.1-0.2-0.1-0.3-0.2c-0.1-0.1-0.2-0.2-0.2-0.4c-0.1-0.2-0.1-0.3-0.2-0.5L96,30.2
		c-0.3,0.3-0.6,0.6-1,0.8c-0.4,0.3-0.8,0.5-1.2,0.7c-0.4,0.2-0.9,0.4-1.4,0.5c-0.5,0.1-1,0.2-1.5,0.2c-0.9,0-1.9-0.1-2.7-0.4
		c-0.9-0.2-1.7-0.6-2.4-1c-0.8-0.4-1.4-1-2.1-1.6c-0.6-0.6-1.1-1.3-1.6-2.1c-0.4-0.8-0.8-1.6-1-2.5c-0.2-0.9-0.4-1.8-0.4-2.8
		c0-1.5,0.3-2.8,0.8-4.1c0.5-1.2,1.3-2.3,2.2-3.3c0.9-0.9,2-1.7,3.2-2.2c1.2-0.5,2.6-0.8,4-0.8c0.6,0,1.3,0.1,1.8,0.2
		c0.6,0.1,1.1,0.3,1.5,0.6c0.5,0.2,0.9,0.6,1.3,0.9c0.4,0.3,0.7,0.7,1,1.1l0.5-1.4c0.1-0.3,0.2-0.5,0.3-0.6c0.1-0.2,0.1-0.3,0.2-0.4
		c0.1-0.1,0.2-0.1,0.3-0.2c0.1,0,0.3,0,0.5,0h2.3c0.1,0,0.2,0,0.4,0c0.2,0,0.3,0.1,0.4,0.2c0.1,0.1,0.3,0.2,0.3,0.4
		c0.1,0.1,0.1,0.3,0.1,0.5V30.9z M86.4,22.1c0,0.7,0.1,1.3,0.3,1.9c0.2,0.6,0.5,1.1,0.9,1.6s0.9,0.8,1.4,1c0.6,0.3,1.2,0.4,1.9,0.4
		c0.7,0,1.3-0.1,1.9-0.4c0.6-0.3,1.1-0.6,1.6-1c0.4-0.4,0.8-1,1-1.6c0.3-0.6,0.4-1.2,0.4-1.9c0-0.7-0.1-1.3-0.4-1.9
		c-0.2-0.6-0.6-1.1-1-1.6c-0.4-0.5-1-0.8-1.6-1.1c-0.6-0.3-1.3-0.4-1.9-0.4c-0.7,0-1.3,0.1-1.9,0.4c-0.6,0.3-1,0.6-1.4,1.1
		c-0.4,0.5-0.7,1-0.9,1.6C86.5,20.8,86.4,21.5,86.4,22.1z"/>
	<path class="st4" d="M105.6,13.3c0-0.2,0-0.4,0.1-0.5c0.1-0.1,0.2-0.3,0.3-0.4s0.3-0.2,0.4-0.2c0.2,0,0.3-0.1,0.4-0.1h2.4
		c0.3,0,0.5,0.1,0.6,0.2c0.2,0.2,0.3,0.4,0.4,0.6c0.1,0.2,0.2,0.5,0.3,0.8c0.1,0.3,0.2,0.6,0.3,0.8c0.3-0.3,0.6-0.7,0.9-1
		c0.3-0.3,0.6-0.6,1-0.9c0.4-0.3,0.7-0.5,1.2-0.6c0.4-0.2,0.9-0.2,1.4-0.2c0.6,0,1.1,0,1.5,0.1c0.4,0.1,0.9,0.2,1.3,0.4
		c0.4,0.2,0.8,0.4,1.2,0.6c0.4,0.3,0.8,0.5,1.3,0.9c0.5,0.3,0.7,0.6,0.7,0.9c0,0.2-0.1,0.5-0.3,0.8l-1.4,2.4
		c-0.3,0.4-0.6,0.6-1.1,0.6c-0.2,0-0.4-0.1-0.7-0.2c-0.4-0.4-0.9-0.8-1.4-1c-0.5-0.2-1-0.3-1.6-0.3c-0.4,0-0.8,0.1-1.1,0.2
		c-0.3,0.1-0.6,0.3-0.8,0.5c-0.3,0.2-0.5,0.5-0.7,0.8c-0.2,0.3-0.4,0.6-0.7,1v11.3c0,0.4-0.1,0.7-0.3,0.9c-0.2,0.2-0.5,0.3-1,0.3
		h-3.5c-0.8,0-1.2-0.4-1.2-1.2V13.3z"/>
	<path class="st4" d="M124,12.4c0.1-0.1,0.3-0.2,0.4-0.2s0.3,0,0.4,0h2.4c0.2,0,0.4,0,0.5,0.1c0.1,0.1,0.3,0.2,0.3,0.3
		c0.1,0.1,0.2,0.2,0.2,0.4c0.1,0.1,0.1,0.3,0.2,0.5l0.3,1.4c0.2-0.3,0.4-0.7,0.8-1c0.3-0.3,0.8-0.7,1.3-0.9c0.5-0.3,1.1-0.5,1.8-0.7
		c0.7-0.2,1.4-0.3,2.3-0.3c1.2,0,2.3,0.2,3.2,0.7c0.9,0.5,1.7,1.1,2.4,1.9c0.7,0.8,1.1,1.7,1.5,2.8c0.3,1.1,0.5,2.2,0.5,3.4v10.3
		c0,0.4-0.1,0.7-0.3,0.9c-0.2,0.2-0.4,0.3-0.8,0.3h-3.6c-0.4,0-0.8-0.1-0.9-0.2s-0.2-0.4-0.2-0.9V20.8c0-0.4-0.1-0.9-0.3-1.3
		c-0.2-0.4-0.5-0.8-0.8-1.1c-0.3-0.3-0.7-0.6-1.1-0.7s-0.9-0.3-1.3-0.3c-0.4,0-0.8,0.1-1.2,0.3c-0.4,0.2-0.8,0.4-1.1,0.7
		c-0.3,0.3-0.6,0.6-0.8,1.1c-0.2,0.4-0.4,0.8-0.4,1.3v10.2c0,0.2,0,0.4-0.1,0.5c-0.1,0.2-0.2,0.3-0.3,0.4c-0.1,0.1-0.3,0.1-0.4,0.2
		c-0.1,0-0.3,0-0.4,0h-3.5c-0.4,0-0.8-0.1-1-0.3c-0.2-0.2-0.3-0.5-0.3-0.9V13.3c0-0.2,0-0.4,0.1-0.5C123.8,12.6,123.9,12.5,124,12.4
		L124,12.4z"/>
	<path class="st4" d="M148.2,9.5c0-0.2,0.1-0.3,0.2-0.5c0.1-0.1,0.3-0.2,0.5-0.2h5.4c0.4,0,0.6,0.2,0.8,0.6l4.3,14.2l4.3-14.2
		c0.1-0.4,0.4-0.6,0.8-0.6h5.4c0.2,0,0.4,0.1,0.5,0.2c0.2,0.1,0.2,0.3,0.3,0.5c0.4,3.7,0.7,7.3,1.1,10.9c0.4,3.6,0.8,7.3,1.1,10.9
		v0.1c0,0.4-0.2,0.6-0.7,0.6h-4.4c-0.5,0-0.7-0.2-0.8-0.7l-1.4-12.1l-3.5,12.2c0,0.1-0.1,0.2-0.2,0.4c-0.1,0.1-0.3,0.2-0.4,0.2h-4.1
		c-0.1,0-0.3-0.1-0.4-0.2c-0.1-0.1-0.2-0.3-0.2-0.4l-3.5-12.2l-1.4,12.1c0,0.5-0.3,0.7-0.8,0.7h-4.4c-0.4,0-0.7-0.2-0.7-0.7
		L148.2,9.5z"/>
	<path class="st4" d="M177,9.5c0-0.2,0.1-0.4,0.2-0.5c0.1-0.1,0.3-0.2,0.5-0.2h15.5c0.2,0,0.4,0.1,0.5,0.2c0.1,0.1,0.2,0.3,0.2,0.5
		v3.9c0,0.2-0.1,0.3-0.2,0.5c-0.1,0.2-0.3,0.2-0.5,0.2H183v3.9h7.8c0.2,0,0.4,0,0.5,0.1c0.1,0.1,0.2,0.2,0.2,0.5v3.4
		c0,0.1-0.1,0.3-0.2,0.4c-0.1,0.1-0.3,0.2-0.5,0.2H183v4h10.5c0.5,0,0.7,0.2,0.7,0.7v3.9c0,0.1,0,0.2-0.1,0.3c0,0.3-0.3,0.4-0.6,0.4
		h-15.8c-0.2,0-0.4-0.1-0.5-0.2c-0.1-0.1-0.2-0.3-0.2-0.5V9.5z"/>
	<path class="st4" d="M198.2,9.5c0-0.2,0.1-0.4,0.2-0.5c0.1-0.1,0.3-0.2,0.5-0.2H209c1.1,0,2.1,0.2,3,0.6c0.9,0.4,1.8,0.9,2.5,1.6
		c0.7,0.7,1.3,1.5,1.7,2.4c0.4,0.9,0.6,1.9,0.6,3c0,0.7-0.1,1.4-0.3,2c-0.2,0.6-0.5,1.2-0.8,1.8c-0.3,0.6-0.8,1.1-1.2,1.5
		c-0.5,0.5-1,0.8-1.6,1.2l4,7.6c0.1,0.1,0.2,0.3,0.3,0.5c0.1,0.2,0.2,0.4,0.2,0.5c0,0.2-0.1,0.3-0.2,0.4c-0.1,0.1-0.3,0.1-0.4,0.1
		h-5.4c-0.2,0-0.3-0.1-0.5-0.2c-0.1-0.1-0.2-0.2-0.3-0.4l-3.8-7.2h-2.5v7.1c0,0.4-0.2,0.7-0.7,0.7h-4.7c-0.2,0-0.4-0.1-0.5-0.2
		c-0.1-0.1-0.2-0.3-0.2-0.5V9.5z M210.4,16.5c0-0.3-0.1-0.6-0.2-0.9c-0.1-0.3-0.3-0.6-0.5-0.9c-0.2-0.3-0.5-0.5-0.8-0.7
		c-0.3-0.2-0.6-0.3-1-0.3c-0.3,0-0.6,0-0.8-0.1c-0.3,0-0.5,0-0.8,0h-2.2v5.8h2.9c0.2,0,0.4,0,0.5,0c0.1,0,0.3,0,0.5,0
		c0.4,0,0.7-0.1,1-0.3c0.3-0.2,0.5-0.4,0.7-0.6c0.2-0.3,0.3-0.5,0.5-0.9C210.4,17.1,210.4,16.8,210.4,16.5z"/>
	<path class="st4" d="M220.2,9.5c0-0.2,0.1-0.3,0.2-0.5c0.1-0.1,0.3-0.2,0.5-0.2h5.1c0.1,0,0.3,0,0.5,0.1c0.2,0.1,0.3,0.2,0.4,0.4
		c1.3,2.1,2.6,4.3,3.9,6.3s2.6,4.2,4,6.3V9.4c0-0.2,0.1-0.3,0.2-0.4c0.1-0.1,0.3-0.2,0.4-0.2h4.5c0.2,0,0.4,0.1,0.5,0.2
		c0.1,0.1,0.2,0.3,0.2,0.5v22c0,0.2-0.1,0.4-0.2,0.5c-0.1,0.1-0.3,0.1-0.5,0.1h-5c-0.1,0-0.3,0-0.4-0.1c-0.1-0.1-0.2-0.2-0.3-0.4
		c-1.4-2.3-2.8-4.6-4.1-6.8c-1.4-2.2-2.7-4.5-4.1-6.8v13.5c0,0.2-0.1,0.4-0.2,0.5c-0.1,0.1-0.3,0.2-0.6,0.2h-4.4
		c-0.2,0-0.4-0.1-0.5-0.2c-0.1-0.1-0.2-0.3-0.2-0.5V9.5z"/>
</g>
</svg>
